<?xml version="1.0" encoding="utf-8"?>
<!-- Generator: Adobe Illustrator 16.0.0, SVG Export Plug-In . SVG Version: 6.00 Build 0)  -->
<!DOCTYPE svg PUBLIC "-//W3C//DTD SVG 1.1//EN" "http://www.w3.org/Graphics/SVG/1.1/DTD/svg11.dtd">
<svg version="1.1" id="Layer_1" xmlns="http://www.w3.org/2000/svg" xmlns:xlink="http://www.w3.org/1999/xlink" x="0px" y="0px"
	 width="300px" height="147.42px" viewBox="0 0 300 147.42" enable-background="new 0 0 300 147.42" xml:space="preserve">
<path fill-rule="evenodd" clip-rule="evenodd" fill="#F9CACC" d="M150,101.5c-6.95,23.69-6.57,42.35,0,42.35
	C156.57,143.85,156.95,125.19,150,101.5z M263.68,36.74c-21.18,2.57-26.16,24.57-3.99,23.78c40.48-1.45,44.56-55.7,2.67-56.9
	c-60.51-1.73-95.31,48.63-109.65,89.47c10.06,29.38,9.04,54.33-2.71,54.33c-11.76,0-12.77-24.95-2.71-54.33
	C132.94,52.25,98.14,1.89,37.64,3.62c-41.88,1.2-37.81,55.44,2.67,56.9c22.18,0.79,17.19-21.21-3.99-23.78
	c-6.32-0.77-5.33-11.57,9.56-2.98c21.15,12.21,14.94,31.06-5.7,30.32C-4.73,62.47-9.46,1.38,37.53,0.04
	C96.49-1.64,133.69,44.64,150,85.76C166.3,44.64,203.5-1.64,262.46,0.04c46.99,1.34,42.28,62.42-2.64,64.04
	c-20.63,0.74-26.84-18.11-5.7-30.32C269.01,25.16,270,35.97,263.68,36.74z"/>
<path fill-rule="evenodd" clip-rule="evenodd" fill="#B1B3B4" d="M170.74,54.71l-1.91-5.6l-1.96,5.6H170.74z M174.18,58.88h-2.04
	l-0.86-2.54h-4.98l-0.86,2.54h-2.04l4.64-12.63h1.54L174.18,58.88z M161.77,54.88c0,0.86-0.19,1.59-0.56,2.21
	c-0.37,0.61-0.88,1.08-1.52,1.41c-0.64,0.32-1.35,0.48-2.12,0.48c-0.42,0-0.8-0.05-1.17-0.13c-0.36-0.08-0.7-0.21-1.01-0.39
	c-0.29-0.18-0.59-0.42-0.89-0.7l1.28-1.26c0.27,0.26,0.53,0.45,0.78,0.58c0.24,0.12,0.58,0.18,1.01,0.18c0.48,0,0.89-0.1,1.23-0.29
	c0.34-0.19,0.61-0.48,0.79-0.86c0.18-0.38,0.27-0.83,0.27-1.37v-8.49h1.92V54.88z M152.62,58.88h-1.93V46.25h1.93V58.88z
	 M148.15,55.1c-0.1,0.62-0.29,1.18-0.56,1.67c-0.26,0.48-0.59,0.89-0.98,1.22c-0.39,0.33-0.83,0.58-1.34,0.74
	c-0.51,0.17-1.04,0.25-1.61,0.25c-0.44,0-0.85-0.06-1.24-0.15c-0.39-0.1-0.76-0.26-1.12-0.46c-0.36-0.21-0.67-0.45-0.95-0.73
	c-0.39-0.41-0.67-0.83-0.85-1.3c-0.18-0.45-0.28-0.95-0.32-1.48c-0.05-0.53-0.06-1.3-0.06-2.3c0-0.77,0.01-1.38,0.02-1.83
	c0.02-0.45,0.07-0.86,0.14-1.24c0.07-0.38,0.19-0.73,0.36-1.05c0.16-0.33,0.39-0.64,0.7-0.95c0.44-0.44,0.94-0.77,1.5-1
	c0.55-0.23,1.16-0.35,1.82-0.35c1.18,0,2.17,0.33,2.97,1.01c0.8,0.68,1.31,1.64,1.53,2.88h-1.95c-0.15-0.66-0.45-1.19-0.88-1.57
	c-0.44-0.39-0.99-0.58-1.67-0.58c-0.37,0-0.72,0.07-1.05,0.2c-0.33,0.14-0.6,0.32-0.83,0.56c-0.17,0.19-0.3,0.37-0.39,0.56
	c-0.09,0.19-0.17,0.43-0.22,0.74c-0.06,0.31-0.1,0.66-0.12,1.04c-0.02,0.39-0.03,0.92-0.03,1.59c0,0.67,0.01,1.19,0.03,1.58
	c0.02,0.38,0.06,0.73,0.12,1.04c0.05,0.31,0.13,0.56,0.22,0.74c0.09,0.18,0.22,0.37,0.39,0.58c0.22,0.23,0.5,0.42,0.83,0.55
	c0.33,0.14,0.68,0.2,1.05,0.2c0.45,0,0.85-0.08,1.2-0.27c0.34-0.18,0.63-0.43,0.86-0.76c0.23-0.33,0.4-0.71,0.49-1.14H148.15z
	 M134.33,54.71l-1.92-5.6l-1.96,5.6H134.33z M137.77,58.88h-2.04l-0.86-2.54h-4.99l-0.87,2.54h-2.04l4.63-12.63h1.54L137.77,58.88z
	 M125.17,58.88h-1.76l-5.83-8.89v8.89h-1.93V46.25h1.77l5.84,8.87v-8.87h1.92V58.88z M112.37,58.88h-1.93V46.25h1.93V58.88z
	 M105.71,52.48c0-0.73-0.02-1.29-0.04-1.68c-0.02-0.39-0.08-0.77-0.18-1.11c-0.1-0.35-0.26-0.63-0.46-0.86
	c-0.52-0.57-1.24-0.85-2.14-0.85h-2.33v9.18h2.33c0.91,0,1.63-0.29,2.14-0.85c0.3-0.33,0.49-0.78,0.57-1.34
	C105.67,54.4,105.71,53.58,105.71,52.48z M107.62,52.48v0.64c0,0.68-0.02,1.27-0.08,1.78c-0.05,0.51-0.17,1.01-0.36,1.5
	c-0.19,0.49-0.47,0.92-0.85,1.3c-0.79,0.79-1.88,1.18-3.27,1.18h-4.43V46.25h4.43c1.39,0,2.48,0.4,3.27,1.19
	c0.38,0.38,0.66,0.8,0.85,1.27c0.18,0.47,0.3,0.94,0.36,1.42c0.05,0.48,0.08,1.06,0.08,1.71V52.48z M93.93,49.95
	c0-0.61-0.2-1.09-0.59-1.45c-0.39-0.35-0.91-0.53-1.56-0.53h-2.83v3.94h2.83c0.64,0,1.17-0.18,1.56-0.53
	C93.73,51.04,93.93,50.56,93.93,49.95z M96.23,58.88H94l-2.66-5.32h-2.39v5.32h-1.93V46.25h4.91c0.77,0,1.46,0.16,2.06,0.48
	c0.6,0.31,1.05,0.75,1.38,1.3c0.32,0.56,0.48,1.2,0.48,1.91c0,0.86-0.23,1.59-0.7,2.17c-0.46,0.58-1.07,0.97-1.81,1.18L96.23,58.88z
	 M82.28,52.57c0-1.26-0.05-2.14-0.15-2.66c-0.1-0.51-0.29-0.93-0.61-1.26c-0.22-0.24-0.49-0.43-0.83-0.57
	c-0.34-0.15-0.68-0.21-1.05-0.21c-0.36,0-0.71,0.07-1.05,0.21c-0.34,0.14-0.62,0.32-0.84,0.57c-0.3,0.33-0.51,0.77-0.6,1.27
	c-0.1,0.51-0.14,1.39-0.14,2.65c0,0.67,0.01,1.2,0.03,1.6c0.02,0.4,0.06,0.75,0.11,1.05c0.06,0.3,0.13,0.53,0.21,0.7
	c0.08,0.16,0.21,0.35,0.39,0.56c0.23,0.24,0.51,0.43,0.85,0.57c0.33,0.14,0.68,0.2,1.04,0.2c0.77,0,1.39-0.26,1.88-0.77
	C81.74,56.26,81.9,56,82,55.71c0.11-0.29,0.17-0.68,0.21-1.17C82.25,54.04,82.28,53.39,82.28,52.57z M84.19,52.56
	c0,1-0.02,1.76-0.05,2.29c-0.04,0.53-0.15,1.03-0.32,1.49c-0.17,0.46-0.45,0.89-0.83,1.3c-0.9,0.9-2.01,1.35-3.33,1.35
	c-1.33,0-2.42-0.45-3.32-1.34c-0.39-0.41-0.68-0.83-0.85-1.3c-0.17-0.45-0.28-0.95-0.32-1.48c-0.05-0.53-0.07-1.3-0.07-2.3
	c0-0.77,0.01-1.38,0.03-1.83c0.02-0.45,0.07-0.86,0.14-1.24c0.07-0.38,0.19-0.73,0.35-1.05c0.17-0.33,0.4-0.64,0.71-0.95
	c0.89-0.9,1.99-1.35,3.31-1.35c1.32,0,2.43,0.45,3.33,1.35c0.39,0.4,0.67,0.83,0.84,1.3c0.16,0.45,0.27,0.95,0.31,1.48
	C84.17,50.8,84.19,51.56,84.19,52.56z M170.74,33.24l-1.91-5.6l-1.96,5.6H170.74z M174.18,37.4h-2.04l-0.86-2.54h-4.98l-0.86,2.54
	h-2.04l4.64-12.63h1.54L174.18,37.4z M163.05,37.4h-2.25l-3.55-6.23l-2.12,2.55v3.67h-1.93V24.78h1.93v6.35l5.16-6.35h2.34
	l-4.1,4.95L163.05,37.4z M149.33,20.69l-2.29,2.85h-1.53l-2.29-2.85h1.51l1.54,1.72l1.54-1.72H149.33z M150.65,33.8
	c0,0.56-0.11,1.08-0.33,1.54c-0.22,0.46-0.53,0.86-0.95,1.18c-0.42,0.33-0.89,0.58-1.45,0.74c-0.55,0.16-1.15,0.24-1.82,0.24
	c-0.96,0-1.8-0.13-2.52-0.39c-0.71-0.26-1.36-0.68-1.95-1.28l1.28-1.26c0.28,0.29,0.59,0.52,0.93,0.71c0.34,0.18,0.7,0.31,1.08,0.39
	c0.38,0.07,0.79,0.11,1.22,0.11c0.81,0,1.45-0.18,1.92-0.52c0.46-0.34,0.69-0.81,0.69-1.42c0-0.57-0.17-1-0.5-1.3
	c-0.15-0.15-0.33-0.27-0.52-0.34c-0.21-0.08-0.48-0.14-0.86-0.2l-1.49-0.21c-1.02-0.14-1.83-0.48-2.4-1.01
	c-0.61-0.57-0.91-1.38-0.91-2.41c0-0.73,0.17-1.38,0.51-1.94c0.34-0.56,0.83-0.99,1.46-1.3c0.64-0.31,1.39-0.46,2.24-0.46
	c0.85,0,1.58,0.11,2.2,0.34c0.61,0.23,1.19,0.6,1.72,1.1l-1.23,1.21c-0.26-0.25-0.52-0.45-0.81-0.58c-0.3-0.15-0.59-0.24-0.9-0.3
	c-0.31-0.06-0.66-0.09-1.04-0.09c-0.48,0-0.89,0.08-1.24,0.25c-0.35,0.17-0.6,0.4-0.8,0.7c-0.17,0.3-0.27,0.64-0.27,1.01
	c0,0.5,0.16,0.89,0.48,1.18c0.16,0.13,0.36,0.25,0.61,0.35c0.26,0.11,0.53,0.18,0.81,0.22l1.44,0.22c0.58,0.08,1.05,0.2,1.42,0.35
	c0.36,0.15,0.67,0.34,0.94,0.58C150.3,31.81,150.65,32.67,150.65,33.8z M138,31.09c0-1.26-0.04-2.14-0.14-2.65
	c-0.1-0.52-0.3-0.94-0.61-1.27c-0.22-0.23-0.5-0.42-0.83-0.57c-0.34-0.14-0.69-0.21-1.05-0.21c-0.36,0-0.71,0.08-1.05,0.21
	c-0.34,0.15-0.61,0.33-0.83,0.57c-0.31,0.34-0.51,0.77-0.61,1.27c-0.09,0.51-0.14,1.38-0.14,2.64c0,0.67,0.02,1.2,0.03,1.61
	c0.02,0.4,0.06,0.75,0.12,1.05c0.05,0.29,0.13,0.53,0.21,0.7c0.08,0.17,0.21,0.36,0.39,0.56c0.23,0.24,0.51,0.43,0.85,0.57
	c0.33,0.15,0.67,0.21,1.04,0.21c0.77,0,1.39-0.26,1.88-0.78c0.21-0.22,0.36-0.48,0.47-0.76c0.11-0.29,0.18-0.68,0.22-1.18
	C137.98,32.56,138,31.9,138,31.09z M139.91,31.09c0,0.99-0.02,1.76-0.06,2.29c-0.04,0.53-0.14,1.02-0.31,1.48
	c-0.17,0.47-0.45,0.9-0.83,1.3c-0.9,0.9-2.02,1.35-3.33,1.35c-1.32,0-2.42-0.45-3.32-1.34c-0.4-0.4-0.68-0.83-0.85-1.29
	c-0.17-0.45-0.28-0.95-0.32-1.49c-0.04-0.54-0.06-1.3-0.06-2.3c0-0.77,0.01-1.38,0.03-1.83c0.02-0.45,0.07-0.86,0.14-1.24
	c0.08-0.37,0.2-0.73,0.35-1.04c0.17-0.33,0.4-0.65,0.71-0.96c0.89-0.89,2-1.34,3.32-1.34c1.32,0,2.42,0.45,3.33,1.34
	c0.39,0.41,0.67,0.83,0.84,1.3c0.17,0.45,0.27,0.95,0.3,1.48C139.9,29.32,139.91,30.08,139.91,31.09z M129.1,37.4h-8.01V24.78h1.93
	v10.9h6.08V37.4z M116.36,31.09c0-1.26-0.05-2.14-0.14-2.65c-0.1-0.52-0.3-0.94-0.61-1.27c-0.22-0.23-0.5-0.42-0.83-0.57
	c-0.34-0.14-0.69-0.21-1.04-0.21c-0.36,0-0.71,0.08-1.05,0.21c-0.34,0.15-0.61,0.33-0.83,0.57c-0.31,0.34-0.51,0.77-0.61,1.27
	c-0.09,0.51-0.14,1.38-0.14,2.64c0,0.67,0.02,1.2,0.03,1.61c0.02,0.4,0.06,0.75,0.12,1.05c0.05,0.29,0.13,0.53,0.21,0.7
	c0.08,0.17,0.21,0.36,0.39,0.56c0.23,0.24,0.51,0.43,0.84,0.57c0.33,0.15,0.68,0.21,1.04,0.21c0.77,0,1.39-0.26,1.88-0.78
	c0.21-0.22,0.36-0.48,0.47-0.76c0.11-0.29,0.18-0.68,0.22-1.18C116.34,32.56,116.36,31.9,116.36,31.09z M118.27,31.09
	c0,0.99-0.02,1.76-0.06,2.29c-0.04,0.53-0.14,1.02-0.31,1.48c-0.18,0.47-0.46,0.9-0.83,1.3c-0.9,0.9-2.01,1.35-3.33,1.35
	c-1.32,0-2.42-0.45-3.32-1.34c-0.39-0.4-0.67-0.83-0.85-1.29c-0.17-0.45-0.28-0.95-0.32-1.49c-0.04-0.54-0.06-1.3-0.06-2.3
	c0-0.77,0.01-1.38,0.03-1.83c0.02-0.45,0.07-0.86,0.14-1.24c0.08-0.37,0.2-0.73,0.36-1.04c0.17-0.33,0.4-0.65,0.7-0.96
	c0.89-0.89,2-1.34,3.32-1.34c1.32,0,2.42,0.45,3.33,1.34c0.39,0.41,0.67,0.83,0.83,1.3c0.17,0.45,0.27,0.95,0.31,1.48
	C118.25,29.32,118.27,30.08,118.27,31.09z M107.82,37.4h-2.25l-3.55-6.23l-2.12,2.55v3.67h-1.93V24.78h1.93v6.35l5.16-6.35h2.34
	l-4.1,4.95L107.82,37.4z M95.35,37.4h-8.08V24.78h8.08v1.72H89.2v3.68h5.25v1.7H89.2v3.79h6.15V37.4z M83.98,37.4h-1.76l-5.83-8.89
	v8.89h-1.93V24.78h1.77l5.84,8.87v-8.87h1.92V37.4z M71.18,37.4h-1.93V24.78h1.93V37.4z M66.44,32.5c0,0.83-0.08,1.52-0.25,2.07
	c-0.18,0.56-0.47,1.06-0.88,1.5c-0.91,0.95-2.07,1.43-3.48,1.43c-0.44,0-0.86-0.04-1.24-0.15c-0.39-0.1-0.76-0.26-1.12-0.46
	c-0.36-0.2-0.68-0.45-0.95-0.73c-0.39-0.4-0.67-0.83-0.85-1.29c-0.17-0.45-0.28-0.95-0.32-1.49c-0.04-0.54-0.06-1.3-0.06-2.3
	c0-0.77,0.01-1.38,0.03-1.83c0.02-0.45,0.07-0.86,0.14-1.24c0.08-0.37,0.2-0.73,0.35-1.04c0.17-0.33,0.4-0.65,0.71-0.96
	c0.9-0.89,2.01-1.34,3.32-1.34c0.86,0,1.61,0.18,2.27,0.51c0.65,0.34,1.17,0.81,1.55,1.41c0.4,0.59,0.65,1.26,0.77,2h-1.93
	c-0.11-0.46-0.27-0.85-0.51-1.17c-0.24-0.33-0.54-0.58-0.9-0.76c-0.35-0.18-0.77-0.27-1.25-0.27c-0.36,0-0.71,0.07-1.03,0.21
	c-0.33,0.14-0.61,0.33-0.84,0.57c-0.3,0.34-0.51,0.77-0.61,1.27c-0.1,0.51-0.15,1.39-0.15,2.65c0,0.67,0.02,1.2,0.03,1.58
	c0.02,0.38,0.06,0.73,0.12,1.04c0.05,0.31,0.14,0.56,0.23,0.73c0.09,0.19,0.22,0.38,0.39,0.58c0.23,0.23,0.5,0.42,0.83,0.55
	c0.33,0.14,0.67,0.21,1.05,0.21c0.85,0,1.54-0.3,2.05-0.9c0.43-0.48,0.64-1.14,0.64-1.98v-0.7h-2.69v-1.63h4.61V32.5z"/>
<path fill-rule="evenodd" clip-rule="evenodd" fill="#868789" d="M281.37,95.5c0,0.89,0.11,1.66,0.35,2.29
	c0.23,0.62,0.56,1.14,0.98,1.54c0.42,0.4,0.92,0.69,1.49,0.87c0.58,0.17,1.2,0.26,1.86,0.26c0.38,0,0.8-0.06,1.29-0.17
	c0.47-0.11,0.98-0.27,1.48-0.48c0.51-0.2,1-0.43,1.49-0.7c0.48-0.27,0.93-0.56,1.34-0.87v-8.77c-1.89,0-3.48,0.17-4.79,0.5
	c-1.31,0.33-2.36,0.78-3.17,1.32c-0.82,0.55-1.41,1.2-1.78,1.92C281.54,93.93,281.37,94.71,281.37,95.5z M275.28,96.2
	c0-1.71,0.46-3.17,1.39-4.36c0.92-1.19,2.14-2.16,3.66-2.91c1.53-0.75,3.27-1.3,5.23-1.66c1.96-0.36,3.99-0.55,6.1-0.55v-1.08
	c0-0.94-0.08-1.74-0.24-2.41c-0.17-0.67-0.46-1.21-0.87-1.61c-0.42-0.42-0.97-0.73-1.67-0.92c-0.7-0.2-1.58-0.3-2.66-0.3
	c-0.92,0-1.8,0.07-2.65,0.2c-0.86,0.14-1.66,0.3-2.41,0.5c-0.75,0.21-1.43,0.43-2.05,0.65c-0.61,0.23-1.15,0.45-1.58,0.64h-0.02
	l-1.23-2.21c0.27-0.26,0.8-0.61,1.58-1.03c0.77-0.43,1.68-0.86,2.74-1.27c1.05-0.42,2.19-0.78,3.41-1.08
	c1.22-0.3,2.42-0.45,3.6-0.45c1.76,0,3.24,0.16,4.44,0.5s2.17,0.88,2.92,1.63c0.74,0.74,1.28,1.72,1.61,2.91
	c0.33,1.18,0.48,2.64,0.48,4.33v15.18H300v2.4c-0.31,0.09-0.69,0.17-1.11,0.27c-0.43,0.09-0.89,0.18-1.38,0.27
	c-0.49,0.08-0.98,0.15-1.48,0.2c-0.5,0.07-0.97,0.11-1.41,0.11c-0.47,0-0.87-0.03-1.2-0.08c-0.33-0.05-0.6-0.16-0.8-0.33
	c-0.21-0.17-0.37-0.42-0.47-0.76c-0.09-0.33-0.14-0.78-0.14-1.33v-1.17c-0.27,0.26-0.67,0.59-1.18,1.01
	c-0.52,0.42-1.13,0.82-1.83,1.21c-0.71,0.39-1.51,0.73-2.39,1.01c-0.89,0.28-1.84,0.42-2.87,0.42c-1.12,0-2.2-0.16-3.23-0.47
	c-1.02-0.31-1.92-0.78-2.7-1.42c-0.78-0.65-1.39-1.47-1.85-2.48C275.5,98.78,275.28,97.59,275.28,96.2z M246.87,79.59l-2.3-0.62
	v-2.6h12.22v2.6l-3.66,0.62l4.78,13.59l2.15,6.47l1.8-6.23l4.62-13.83l-3.37-0.62v-2.6h10.33v2.6l-2.54,0.64l-9.42,24.54h-4.6
	L246.87,79.59z M236.8,86.97c0.03-0.27,0.05-0.58,0.08-0.91c0.02-0.33,0.02-0.61,0.02-0.88c0-0.81-0.1-1.57-0.3-2.28
	c-0.19-0.7-0.5-1.33-0.92-1.86c-0.42-0.54-0.95-0.95-1.62-1.26c-0.67-0.3-1.49-0.46-2.47-0.46c-0.83,0-1.61,0.12-2.32,0.36
	c-0.72,0.24-1.36,0.66-1.89,1.25c-0.54,0.6-0.98,1.38-1.32,2.36c-0.33,0.98-0.54,2.2-0.63,3.67H236.8z M219.56,90.29
	c0-2.08,0.33-3.98,0.98-5.69c0.65-1.71,1.56-3.18,2.73-4.41c1.17-1.21,2.55-2.16,4.15-2.83c1.61-0.67,3.36-1,5.26-1
	c3.12,0,5.54,0.77,7.25,2.32c1.71,1.54,2.63,3.8,2.74,6.77c0.01,0.95,0,1.77-0.04,2.49c-0.05,0.71-0.13,1.33-0.26,1.87h-16.93
	c0.05,1.86,0.31,3.45,0.77,4.78c0.46,1.34,1.07,2.44,1.81,3.29c0.74,0.85,1.61,1.48,2.59,1.89c0.98,0.41,2.02,0.61,3.14,0.61
	c0.7,0,1.41-0.07,2.12-0.19c0.72-0.14,1.41-0.31,2.07-0.52c0.66-0.23,1.27-0.47,1.83-0.73c0.57-0.28,1.04-0.55,1.41-0.84l1.03,2.4
	c-0.46,0.45-1.05,0.92-1.79,1.36c-0.74,0.43-1.54,0.83-2.43,1.16c-0.89,0.34-1.83,0.61-2.84,0.83c-1.01,0.2-2.03,0.31-3.05,0.31
	c-2.11,0-3.94-0.35-5.51-1.02c-1.57-0.67-2.88-1.62-3.92-2.86c-1.04-1.23-1.82-2.69-2.33-4.39
	C219.82,94.19,219.56,92.33,219.56,90.29z M193.79,90.76c0-1.96,0.29-3.81,0.88-5.55c0.58-1.74,1.47-3.28,2.65-4.58
	c1.18-1.32,2.65-2.36,4.41-3.12c1.76-0.76,3.8-1.14,6.13-1.14c0.85,0,1.65,0.06,2.42,0.17c0.77,0.11,1.48,0.24,2.13,0.4
	c0.65,0.16,1.23,0.33,1.73,0.5c0.51,0.18,0.92,0.33,1.24,0.44l-0.24,7.17h-3.39l-1.12-4.3c-0.23-0.52-0.7-0.9-1.39-1.14
	c-0.71-0.24-1.5-0.36-2.39-0.36c-1.06,0-2.02,0.2-2.89,0.61c-0.86,0.41-1.61,1.02-2.23,1.83c-0.63,0.81-1.11,1.83-1.45,3.06
	c-0.34,1.23-0.52,2.65-0.52,4.28c-0.01,1.99,0.2,3.71,0.62,5.14c0.42,1.43,0.99,2.61,1.71,3.53c0.73,0.92,1.58,1.6,2.55,2.03
	c0.97,0.45,2.01,0.66,3.11,0.66c0.76,0,1.5-0.05,2.19-0.18c0.7-0.13,1.33-0.27,1.92-0.47c0.58-0.19,1.12-0.41,1.61-0.64
	c0.49-0.24,0.91-0.48,1.26-0.73l1.05,2.17c-0.42,0.43-0.96,0.87-1.61,1.29s-1.39,0.8-2.2,1.15c-0.83,0.34-1.7,0.62-2.63,0.84
	c-0.92,0.21-1.88,0.33-2.83,0.33c-2.12,0-3.97-0.35-5.54-1.03c-1.58-0.68-2.9-1.62-3.96-2.83c-1.06-1.19-1.85-2.61-2.38-4.24
	C194.08,94.42,193.82,92.65,193.79,90.76z M203.03,69.75l8.05-9.91h0.02l3.89,3.4c-0.22,0.37-0.58,0.81-1.05,1.34
	c-0.47,0.52-1.01,1.07-1.63,1.64c-0.61,0.56-1.26,1.14-1.96,1.7c-0.69,0.58-1.36,1.1-2.02,1.59c-0.66,0.48-1.28,0.91-1.86,1.28
	c-0.57,0.36-1.04,0.62-1.42,0.77H205L203.03,69.75z M183.08,70.78c-0.48,0-0.91-0.08-1.31-0.26c-0.4-0.17-0.74-0.41-1.01-0.71
	c-0.27-0.3-0.49-0.65-0.64-1.06c-0.16-0.41-0.24-0.85-0.24-1.32c0-0.52,0.08-1.01,0.24-1.49c0.15-0.47,0.39-0.89,0.69-1.26
	c0.31-0.36,0.7-0.66,1.15-0.87c0.46-0.23,0.99-0.33,1.58-0.33h0.03c0.54,0,1.01,0.09,1.43,0.28c0.41,0.18,0.76,0.43,1.04,0.76
	c0.29,0.32,0.51,0.67,0.64,1.08c0.15,0.41,0.22,0.83,0.22,1.26c0,0.54-0.08,1.05-0.23,1.53c-0.15,0.48-0.39,0.9-0.71,1.25
	c-0.32,0.35-0.72,0.63-1.2,0.82c-0.47,0.21-1.03,0.31-1.67,0.31H183.08z M177.09,101.48l3.95-0.42V80.6l-3.54-1v-2.89l7.76-1h0.13
	l1.24,0.96v24.4l3.91,0.42v2.67h-13.45V101.48z M159.94,79.86h-3.5v-2.32c0.22-0.05,0.45-0.12,0.73-0.22
	c0.26-0.09,0.54-0.2,0.8-0.29c0.27-0.1,0.51-0.19,0.73-0.28c0.22-0.1,0.38-0.18,0.47-0.25c0.29-0.21,0.53-0.48,0.74-0.8
	c0.22-0.33,0.41-0.73,0.59-1.24c0.13-0.31,0.29-0.73,0.46-1.26c0.18-0.53,0.36-1.07,0.52-1.64c0.17-0.55,0.33-1.1,0.48-1.62
	c0.15-0.52,0.26-0.93,0.32-1.22h3.17l0.05,7.63h8.21v3.49h-8.19v14.47c0,1.37,0.02,2.45,0.08,3.23c0.05,0.77,0.17,1.36,0.35,1.74
	c0.2,0.39,0.48,0.63,0.84,0.72c0.38,0.09,0.89,0.14,1.52,0.14h0.02c0.46,0,0.95-0.03,1.48-0.09c0.53-0.06,1.04-0.14,1.52-0.24
	c0.49-0.09,0.95-0.19,1.36-0.3c0.42-0.12,0.74-0.22,0.99-0.31h0.02l0.83,2.33c-0.38,0.3-0.89,0.6-1.54,0.91
	c-0.64,0.31-1.36,0.58-2.15,0.83c-0.78,0.25-1.59,0.45-2.42,0.62c-0.83,0.17-1.61,0.25-2.34,0.25h-0.05c-0.96,0-1.83-0.09-2.58-0.29
	c-0.76-0.19-1.4-0.52-1.92-0.96c-0.52-0.45-0.92-1.04-1.2-1.76c-0.28-0.72-0.42-1.61-0.42-2.67V79.86z M139.94,101.12
	c4.51,0,6.77-3.48,6.77-10.44c0-1.61-0.13-3.11-0.37-4.48c-0.25-1.38-0.63-2.57-1.17-3.58c-0.53-1.02-1.23-1.8-2.08-2.37
	c-0.85-0.58-1.9-0.86-3.14-0.86c-2.23,0-3.92,0.86-5.07,2.61c-1.14,1.74-1.72,4.35-1.72,7.83c0,1.61,0.13,3.11,0.38,4.49
	c0.25,1.39,0.65,2.58,1.18,3.58c0.54,1.01,1.24,1.8,2.1,2.36C137.68,100.84,138.72,101.12,139.94,101.12z M126.99,90.24
	c0-2.23,0.38-4.2,1.14-5.93c0.75-1.73,1.75-3.17,2.99-4.35c1.23-1.17,2.64-2.07,4.24-2.68c1.58-0.61,3.21-0.92,4.87-0.92
	c2.2,0,4.1,0.35,5.69,1.07c1.6,0.72,2.92,1.7,3.94,2.94c1.02,1.25,1.78,2.71,2.28,4.41c0.49,1.7,0.74,3.52,0.74,5.48
	c0,2.25-0.37,4.24-1.12,5.97c-0.75,1.73-1.74,3.17-2.98,4.36c-1.24,1.17-2.66,2.06-4.25,2.66c-1.6,0.6-3.23,0.9-4.92,0.9
	c-2.2,0-4.09-0.36-5.67-1.08c-1.58-0.72-2.89-1.7-3.92-2.94c-1.02-1.25-1.79-2.72-2.28-4.41C127.24,94.02,126.99,92.2,126.99,90.24z
	 M77.53,101.58l3.05-0.4V81.33l-3.49-0.95v-3.03l7.2-1.02h0.13l1.17,0.99v2.04l-0.06,1.15c0.55-0.5,1.21-1.01,2.02-1.51
	c0.8-0.51,1.67-0.95,2.59-1.34c0.92-0.39,1.85-0.7,2.8-0.94c0.94-0.24,1.83-0.37,2.66-0.37c1.81,0,3.26,0.3,4.33,0.9
	c1.08,0.61,1.91,1.54,2.48,2.81c0.46-0.39,1.06-0.8,1.81-1.24c0.74-0.44,1.57-0.84,2.46-1.21c0.88-0.36,1.8-0.67,2.76-0.91
	c0.95-0.23,1.86-0.35,2.73-0.35c1.59,0,2.92,0.22,3.97,0.66c1.05,0.43,1.87,1.11,2.49,2.02c0.6,0.9,1.03,2.06,1.27,3.48
	c0.25,1.41,0.37,3.09,0.37,5.05v13.6l3.49,0.4v2.56H111.8v-2.56l2.88-0.42V87.79c0-1.3-0.07-2.43-0.2-3.39
	c-0.14-0.95-0.4-1.76-0.79-2.39c-0.38-0.63-0.93-1.11-1.61-1.42c-0.7-0.31-1.58-0.46-2.67-0.46c-0.54,0-1.09,0.06-1.67,0.2
	c-0.56,0.14-1.13,0.32-1.69,0.54c-0.57,0.23-1.09,0.48-1.59,0.76c-0.49,0.27-0.94,0.55-1.32,0.84c0.16,0.74,0.27,1.56,0.34,2.44
	c0.07,0.88,0.09,1.85,0.09,2.89v13.37l3.57,0.42v2.56H94.72v-2.56l3.25-0.42v-13.5c0-1.29-0.05-2.4-0.17-3.36
	c-0.11-0.94-0.35-1.73-0.71-2.35c-0.36-0.62-0.86-1.08-1.5-1.39c-0.64-0.3-1.48-0.45-2.53-0.45c-0.6,0-1.21,0.07-1.84,0.21
	c-0.64,0.14-1.24,0.33-1.85,0.58c-0.61,0.25-1.18,0.52-1.72,0.84c-0.55,0.31-1.05,0.64-1.48,0.99v18.42l3.27,0.42v2.56H77.53V101.58
	z M59.86,101.48l3.95-0.42V66.99l-4-0.49v-2.32l8.32-1.05h0.05l1.19,0.83v37.1l4.17,0.42v2.67H59.86V101.48z M38.21,95.5
	c0,0.89,0.11,1.66,0.35,2.29c0.23,0.62,0.56,1.14,0.98,1.54c0.42,0.4,0.92,0.69,1.49,0.87c0.58,0.17,1.2,0.26,1.86,0.26
	c0.38,0,0.8-0.06,1.29-0.17c0.48-0.11,0.98-0.27,1.48-0.48c0.51-0.2,1-0.43,1.49-0.7c0.48-0.27,0.93-0.56,1.34-0.87v-8.77
	c-1.89,0-3.48,0.17-4.79,0.5c-1.31,0.33-2.36,0.78-3.17,1.32c-0.82,0.55-1.41,1.2-1.78,1.92C38.38,93.93,38.21,94.71,38.21,95.5z
	 M32.12,96.2c0-1.71,0.46-3.17,1.39-4.36c0.92-1.19,2.14-2.16,3.66-2.91c1.53-0.75,3.27-1.3,5.23-1.66c1.96-0.36,4-0.55,6.1-0.55
	v-1.08c0-0.94-0.08-1.74-0.24-2.41c-0.17-0.67-0.46-1.21-0.86-1.61c-0.42-0.42-0.98-0.73-1.68-0.92c-0.7-0.2-1.58-0.3-2.66-0.3
	c-0.91,0-1.8,0.07-2.65,0.2c-0.85,0.14-1.66,0.3-2.41,0.5c-0.75,0.21-1.43,0.43-2.05,0.65c-0.61,0.23-1.15,0.45-1.58,0.64h-0.02
	l-1.23-2.21c0.27-0.26,0.8-0.61,1.58-1.03c0.78-0.43,1.69-0.86,2.73-1.27c1.05-0.42,2.2-0.78,3.41-1.08c1.22-0.3,2.42-0.45,3.6-0.45
	c1.76,0,3.23,0.16,4.44,0.5c1.2,0.33,2.18,0.88,2.92,1.63c0.74,0.74,1.27,1.72,1.6,2.91c0.33,1.18,0.48,2.64,0.48,4.33v15.18h2.98
	v2.4c-0.31,0.09-0.68,0.17-1.11,0.27c-0.43,0.09-0.89,0.18-1.38,0.27c-0.49,0.08-0.98,0.15-1.48,0.2c-0.5,0.07-0.97,0.11-1.41,0.11
	c-0.47,0-0.87-0.03-1.2-0.08c-0.32-0.05-0.6-0.16-0.8-0.33c-0.21-0.17-0.37-0.42-0.47-0.76c-0.09-0.33-0.15-0.78-0.15-1.33v-1.17
	c-0.27,0.26-0.67,0.59-1.18,1.01c-0.52,0.42-1.13,0.82-1.83,1.21c-0.71,0.39-1.51,0.73-2.4,1.01c-0.89,0.28-1.84,0.42-2.87,0.42
	c-1.12,0-2.2-0.16-3.22-0.47c-1.03-0.31-1.93-0.78-2.71-1.42c-0.77-0.65-1.39-1.47-1.84-2.48C32.35,98.78,32.12,97.59,32.12,96.2z
	 M9.82,87.27c0.46,0.11,1.02,0.17,1.71,0.17c0.68,0,1.6,0,2.76,0c1.08,0,2.12-0.16,3.13-0.48c1.01-0.32,1.9-0.86,2.67-1.63
	c0.77-0.76,1.39-1.79,1.85-3.08c0.47-1.28,0.71-2.91,0.71-4.87c0-1.42-0.18-2.63-0.52-3.63c-0.36-0.99-0.88-1.81-1.57-2.45
	c-0.71-0.62-1.58-1.09-2.64-1.39c-1.06-0.29-2.3-0.43-3.72-0.43c-0.57,0-1.06,0.01-1.48,0.05c-0.42,0.03-0.8,0.07-1.13,0.1
	c-0.33,0.02-0.63,0.07-0.92,0.1c-0.27,0.05-0.55,0.06-0.85,0.06V87.27z M0,101.52l4.1-0.56V70.57l-3.83-0.62v-2.98H6.3
	c0.76,0,1.44,0,2.04,0c0.59,0,1.2,0,1.82,0c0.64,0,1.32,0,2.05,0c0.74,0,1.64,0,2.7,0c2.66,0,4.87,0.23,6.64,0.7
	c1.77,0.48,3.2,1.16,4.28,2.05c1.08,0.9,1.83,2,2.28,3.31c0.44,1.3,0.67,2.79,0.67,4.45c0,2.03-0.36,3.84-1.08,5.42
	c-0.73,1.6-1.74,2.94-3.02,4.03c-1.29,1.1-2.82,1.93-4.6,2.51c-1.77,0.58-3.71,0.87-5.81,0.87c-0.45,0-0.92,0-1.4,0
	c-0.48,0-0.93,0-1.35,0c-0.41,0-0.76-0.01-1.08-0.04c-0.3-0.02-0.51-0.05-0.62-0.09v10.77l6.6,0.56v2.62H0V101.52z"/>
</svg>
